<?xml version="1.0" encoding="utf-8"?>
<!-- Svg Vector Icons : http://www.sfont.cn -->
<!DOCTYPE svg PUBLIC "-//W3C//DTD SVG 1.1//EN" "http://www.w3.org/Graphics/SVG/1.1/DTD/svg11.dtd">
<svg version="1.1" xmlns="http://www.w3.org/2000/svg" xmlns:xlink="http://www.w3.org/1999/xlink" x="0px" y="0px" viewBox="0 0 1000 1000" enable-background="new 0 0 1000 1000" xml:space="preserve">
<metadata> Svg Vector Icons : http://www.sfont.cn </metadata>
<g><path d="M25.3,10v980V10z"/><path d="M40.6,10v980V10z"/><path d="M55.9,10v980V10z"/><path d="M71.2,10v980V10z"/><path d="M86.6,10v980V10z"/><path d="M101.9,10v980V10z"/><path d="M117.2,10v980V10z"/><path d="M132.5,10v980V10z"/><path d="M147.8,10v980V10z"/><path d="M163.1,10v980V10z"/><path d="M178.4,10v980V10z"/><path d="M193.7,10v980V10z"/><path d="M209.1,10v980V10z"/><path d="M224.4,10v980V10z"/><path d="M239.7,10v980V10z"/><path d="M255,10v980V10z"/><path d="M270.3,10v980V10z"/><path d="M285.6,10v980V10z"/><path d="M300.9,10v980V10z"/><path d="M316.2,10v980V10z"/><path d="M331.6,10v980V10z"/><path d="M346.9,10v980V10z"/><path d="M362.2,10v980V10z"/><path d="M377.5,10v980V10z"/><path d="M392.8,10v980V10z"/><path d="M408.1,10v980V10z"/><path d="M423.4,10v980V10z"/><path d="M438.7,10v980V10z"/><path d="M454.1,10v980V10z"/><path d="M469.4,10v980V10z"/><path d="M484.7,10v980V10z"/><path d="M500,10v980V10z"/><path d="M515.3,10v980V10z"/><path d="M530.6,10v980V10z"/><path d="M545.9,10v980V10z"/><path d="M561.2,10v980V10z"/><path d="M576.6,10v980V10z"/><path d="M591.9,10v980V10z"/><path d="M607.2,10v980V10z"/><path d="M622.5,10v980V10z"/><path d="M637.8,10v980V10z"/><path d="M653.1,10v980V10z"/><path d="M668.4,10v980V10z"/><path d="M683.7,10v980V10z"/><path d="M699.1,10v980V10z"/><path d="M714.4,10v980V10z"/><path d="M729.7,10v980V10z"/><path d="M745,10v980V10z"/><path d="M760.3,10v980V10z"/><path d="M775.6,10v980V10z"/><path d="M790.9,10v980V10z"/><path d="M806.2,10v980V10z"/><path d="M821.6,10v980V10z"/><path d="M836.9,10v980V10z"/><path d="M852.2,10v980V10z"/><path d="M867.5,10v980V10z"/><path d="M882.8,10v980V10z"/><path d="M898.1,10v980V10z"/><path d="M913.4,10v980V10z"/><path d="M928.7,10v980V10z"/><path d="M944.1,10v980V10z"/><path d="M959.4,10v980V10z"/><path d="M974.7,10v980V10z"/><path d="M10,25.3h980H10z"/><path d="M10,40.6h980H10z"/><path d="M10,55.9h980H10z"/><path d="M10,71.3h980H10z"/><path d="M10,86.6h980H10z"/><path d="M10,101.9h980H10z"/><path d="M10,117.2h980H10z"/><path d="M10,132.5h980H10z"/><path d="M10,147.8h980H10z"/><path d="M10,163.1h980H10z"/><path d="M10,178.4h980H10z"/><path d="M10,193.8h980H10z"/><path d="M10,209.1h980H10z"/><path d="M10,224.4h980H10z"/><path d="M10,239.7h980H10z"/><path d="M10,255h980H10z"/><path d="M10,270.3h980H10z"/><path d="M10,285.6h980H10z"/><path d="M10,300.9h980H10z"/><path d="M10,316.3h980H10z"/><path d="M10,331.6h980H10z"/><path d="M10,346.9h980H10z"/><path d="M10,362.2h980H10z"/><path d="M10,377.5h980H10z"/><path d="M10,392.8h980H10z"/><path d="M10,408.1h980H10z"/><path d="M10,423.4h980H10z"/><path d="M10,438.8h980H10z"/><path d="M10,454.1h980H10z"/><path d="M10,469.4h980H10z"/><path d="M10,484.7h980H10z"/><path d="M10,500h980H10z"/><path d="M10,515.3h980H10z"/><path d="M10,530.6h980H10z"/><path d="M10,545.9h980H10z"/><path d="M10,561.2h980H10z"/><path d="M10,576.6h980H10z"/><path d="M10,591.9h980H10z"/><path d="M10,607.2h980H10z"/><path d="M10,622.5h980H10z"/><path d="M10,637.8h980H10z"/><path d="M10,653.1h980H10z"/><path d="M10,668.4h980H10z"/><path d="M10,683.7h980H10z"/><path d="M10,699.1h980H10z"/><path d="M10,714.4h980H10z"/><path d="M10,729.7h980H10z"/><path d="M10,745h980H10z"/><path d="M10,760.3h980H10z"/><path d="M10,775.6h980H10z"/><path d="M10,790.9h980H10z"/><path d="M10,806.2h980H10z"/><path d="M10,821.6h980H10z"/><path d="M10,836.9h980H10z"/><path d="M10,852.2h980H10z"/><path d="M10,867.5h980H10z"/><path d="M10,882.8h980H10z"/><path d="M10,898.1h980H10z"/><path d="M10,913.4h980H10z"/><path d="M10,928.7h980H10z"/><path d="M10,944.1h980H10z"/><path d="M10,959.4h980H10z"/><path d="M10,974.7h980H10z"/><path d="M904,171.2c-111.1-110.1-288.9-112.4-404-8.8c-115.1-103.6-292.8-101.3-404,8.8c-114.6,113.4-114.6,297.3,0,410.8c32.7,32.4,338.5,335.1,338.5,335.1c36.2,35.9,94.8,35.9,131,0c0,0,334.8-331.4,338.5-335.1C1018.7,468.6,1018.7,284.7,904,171.2z M860.4,538.8L521.9,873.9c-12,12-31.7,12-43.6,0L139.8,538.8c-90.3-89.4-90.3-234.9,0-324.3c87.1-86.2,227.1-89.2,318.8-6.8l41.5,37.4l41.5-37.4c91.7-82.4,231.7-79.4,318.8,6.8C950.7,303.9,950.7,449.4,860.4,538.8z M293.4,239.7c8.5,0,15.3,6.9,15.3,15.3c0,8.5-6.9,15.3-15.3,15.3h0c-54.9,0-99.5,44.6-99.5,99.5v0c0,8.5-6.9,15.3-15.3,15.3c-8.5,0-15.3-6.9-15.3-15.3l0,0c0-71.8,58.2-130.1,130-130.1C293.3,239.8,293.3,239.7,293.4,239.7L293.4,239.7z"/></g>
</svg>